<?xml version="1.0" encoding="UTF-8" standalone="no"?><!DOCTYPE svg PUBLIC "-//W3C//DTD SVG 1.1//EN" "http://www.w3.org/Graphics/SVG/1.1/DTD/svg11.dtd"><svg width="100%" height="100%" viewBox="0 0 9187 1569" version="1.1" xmlns="http://www.w3.org/2000/svg" xmlns:xlink="http://www.w3.org/1999/xlink" xml:space="preserve" xmlns:serif="http://www.serif.com/" style="fill-rule:evenodd;clip-rule:evenodd;stroke-linejoin:round;stroke-miterlimit:2;"><rect id="Artboard2" x="0" y="-0" width="9187" height="1568.98" style="fill:none;"/><rect x="107.28" y="1198.02" width="4326" height="317.417" style="fill:#f6e5bf;"/><g><path d="M273.968,1449.58l-0,-207.739l-22.518,0l0,143.933l-113.368,-144.23l-1.778,0l-0,208.036l22.517,-0l0,-142.746l112.48,142.746l2.667,-0Z" style="fill:#9f8c8c;fill-rule:nonzero;"/><path d="M395.977,1337.11c-9.501,-16.301 -24.05,-23.409 -43.646,-23.409c-33.254,0 -56.069,28.159 -56.069,70.019c0,41.86 23.111,68.832 56.069,68.832c20.784,0 34.739,-7.403 43.646,-22.222l-0,19.255l22.221,-0l-0,-132.619l-22.221,-0l-0,20.144Zm-76.604,46.758c0,-33.101 14.846,-51.804 38.005,-51.804c24.05,-0 38.599,19.89 38.599,51.656c-0,31.766 -14.549,51.657 -38.599,51.657c-24.347,-0 -38.005,-20.188 -38.005,-51.657l0,0.148Z" style="fill:#9f8c8c;fill-rule:nonzero;"/><path d="M476.661,1264.43l-22.221,-0l0,52.528l-18.399,-0l-0,16.879l18.399,-0l0,115.74l22.221,-0l0,-115.74l18.4,-0l-0,-16.879l-18.4,-0l0,-52.528Z" style="fill:#9f8c8c;fill-rule:nonzero;"/><path d="M512.904,1316.96l-0,132.619l22.517,-0l0,-132.619l-22.517,-0Zm11.259,-67.664c-8.299,0 -14.82,6.818 -14.82,15.117c-0,8.299 6.521,14.82 14.82,14.82c8.299,0 15.116,-6.521 15.116,-14.82c0,-8.299 -6.817,-15.117 -15.116,-15.117l-0,0Z" style="fill:#9f8c8c;fill-rule:nonzero;"/><path d="M623.877,1313.7c-37.112,0 -67.348,30.832 -67.348,70.316c0,38.891 30.236,68.832 67.348,68.832c36.815,-0 66.458,-30.238 66.458,-69.129c-0,-39.484 -29.643,-70.019 -66.458,-70.019Zm0.297,18.956c24.049,0 43.643,23.751 43.643,51.36c0,27.61 -19.594,50.173 -43.643,50.173c-24.345,-0 -43.941,-22.563 -43.941,-50.173c0,-27.609 19.596,-51.36 43.941,-51.36Z" style="fill:#9f8c8c;fill-rule:nonzero;"/><path d="M826.552,1369.45c-0,-36.8 -16.888,-55.756 -47.756,-55.756c-19.301,0 -33.256,7.997 -43.946,24.002l0,-20.737l-22.517,-0l-0,132.619l22.517,-0l0,-74.598c0.594,-26.601 14.55,-42.33 38.898,-42.33c20.191,0.297 30.287,12.465 30.287,37.69l-0,79.238l22.517,-0l-0,-80.128Z" style="fill:#9f8c8c;fill-rule:nonzero;"/><path d="M946.781,1337.11c-9.501,-16.301 -24.05,-23.409 -43.647,-23.409c-33.253,0 -56.068,28.159 -56.068,70.019c0,41.86 23.111,68.832 56.068,68.832c20.784,0 34.739,-7.403 43.647,-22.222l-0,19.255l22.22,-0l0,-132.619l-22.22,-0l-0,20.144Zm-76.604,46.758c-0,-33.101 14.846,-51.804 38.005,-51.804c24.05,-0 38.599,19.89 38.599,51.656c-0,31.766 -14.549,51.657 -38.599,51.657c-24.347,-0 -38.005,-20.188 -38.005,-51.657l-0,0.148Z" style="fill:#9f8c8c;fill-rule:nonzero;"/><rect x="998.122" y="1227.04" width="22.517" height="222.54" style="fill:#9f8c8c;fill-rule:nonzero;"/><path d="M1149.73,1262.62l30.583,-0c25.238,0.591 40.975,12.423 40.975,39.044c0,26.916 -16.925,39.043 -40.975,39.043l-30.583,0l-0,-78.087Zm-22.815,-20.44l0,207.405l22.815,-0l-0,-89.031l30.583,-0c40.678,-0 63.789,-18.958 63.789,-58.89c0,-41.71 -24.002,-59.484 -63.789,-59.484l-53.398,-0Z" style="fill:#9f8c8c;fill-rule:nonzero;"/><path d="M1336.7,1317.84c-5.342,-2.962 -13.058,-4.147 -15.729,-4.147c-21.961,0 -36.502,7.701 -45.999,24.002l0,-20.737l-22.517,-0l-0,132.619l22.517,-0l0,-69.566c0.594,-30.149 13.652,-47.065 39.174,-47.065c6.232,0 9.793,2.078 14.838,5.045l7.716,-20.151Z" style="fill:#9f8c8c;fill-rule:nonzero;"/><path d="M1393.1,1313.7c-37.112,0 -67.348,30.832 -67.348,70.316c-0,38.891 30.236,68.832 67.348,68.832c36.815,-0 66.458,-30.238 66.458,-69.129c-0,-39.484 -29.643,-70.019 -66.458,-70.019Zm0.297,18.956c24.048,0 43.643,23.751 43.643,51.36c0,27.61 -19.595,50.173 -43.643,50.173c-24.346,-0 -43.941,-22.563 -43.941,-50.173c0,-27.609 19.595,-51.36 43.941,-51.36Z" style="fill:#9f8c8c;fill-rule:nonzero;"/><path d="M1556.01,1227.04l-21.071,-0c-30.553,0.592 -44.182,18.661 -44.182,48.775l0,41.146l-21.367,-0l0,16.879l21.367,-0l0,115.74l22.518,-0l-0,-115.74l24.632,-0l-0,-16.879l-24.632,-0l-0,-43.531c0.593,-16.697 4.748,-28.028 21.367,-28.028l21.368,0l-0,-18.362Z" style="fill:#9f8c8c;fill-rule:nonzero;"/><path d="M1648.01,1415.77c-10.09,11.88 -22.258,18.414 -39.47,18.414l-2.374,-0c-24.336,-0 -43.922,-22.572 -43.922,-49.895l104.166,0l-0,-7.997c-2.968,-38.293 -25.226,-62.597 -60.838,-62.597l-1.187,0c-37.096,0 -65.252,30.841 -65.252,70.298c-0,38.905 29.64,68.85 66.736,68.85c23.445,-0.296 44.218,-8.589 56.089,-24.599l-13.948,-12.474Zm-83.392,-50.14c2.968,-13.964 21.367,-32.979 40.064,-32.979c18.399,0 35.018,9.211 38.876,32.979l-78.94,-0Z" style="fill:#9f8c8c;fill-rule:nonzero;"/><path d="M1769.1,1330.88c-13.63,-12.44 -26.687,-17.179 -40.349,-17.179c-29.099,0 -47.466,16.586 -47.466,41.222c0.593,21.969 15.108,31.766 42.418,39.188c17.522,4.453 27.323,7.422 27.323,23.453c-0.594,13.657 -8.316,16.626 -28.214,16.626c-11.286,-0 -22.568,-5.641 -30.27,-16.329l-16.302,13.954c10.97,13.629 29.94,21.034 45.978,21.034c35.03,-0 51.622,-14.809 51.622,-39.441l0,-0.594c0,-22.265 -21.925,-32.656 -41.525,-37.703c-15.146,-3.266 -29.699,-8.016 -30.59,-21.078c0,-13.954 11.286,-21.672 26.135,-21.672c12.177,-0 19.899,5.046 28.499,13.062l12.741,-14.543Z" style="fill:#9f8c8c;fill-rule:nonzero;"/><path d="M1874.45,1330.88c-13.63,-12.44 -26.687,-17.179 -40.349,-17.179c-29.099,0 -47.466,16.586 -47.466,41.222c0.593,21.969 15.108,31.766 42.418,39.188c17.522,4.453 27.323,7.422 27.323,23.453c-0.594,13.657 -8.316,16.626 -28.214,16.626c-11.286,-0 -22.568,-5.641 -30.27,-16.329l-16.302,13.954c10.97,13.629 29.94,21.034 45.978,21.034c35.03,-0 51.622,-14.809 51.622,-39.441l0,-0.594c0,-22.265 -21.925,-32.656 -41.525,-37.703c-15.146,-3.266 -29.699,-8.016 -30.59,-21.078c0,-13.954 11.286,-21.672 26.136,-21.672c12.176,-0 19.898,5.046 28.498,13.062l12.741,-14.543Z" style="fill:#9f8c8c;fill-rule:nonzero;"/><path d="M1899.71,1316.96l0,132.619l22.518,-0l-0,-132.619l-22.518,-0Zm11.259,-67.664c-8.299,0 -14.82,6.818 -14.82,15.117c0,8.299 6.521,14.82 14.82,14.82c8.3,0 15.117,-6.521 15.117,-14.82c-0,-8.299 -6.817,-15.117 -15.117,-15.117l0,0Z" style="fill:#9f8c8c;fill-rule:nonzero;"/><path d="M2010.68,1313.7c-37.112,0 -67.349,30.832 -67.349,70.316c0,38.891 30.237,68.832 67.349,68.832c36.815,-0 66.457,-30.238 66.457,-69.129c0,-39.484 -29.642,-70.019 -66.457,-70.019Zm0.296,18.956c24.049,0 43.644,23.751 43.644,51.36c-0,27.61 -19.595,50.173 -43.644,50.173c-24.345,-0 -43.94,-22.563 -43.94,-50.173c-0,-27.609 19.595,-51.36 43.94,-51.36Z" style="fill:#9f8c8c;fill-rule:nonzero;"/><path d="M2213.35,1369.45c0,-36.8 -16.888,-55.756 -47.756,-55.756c-19.3,0 -33.256,7.997 -43.945,24.002l-0,-20.737l-22.518,-0l0,132.619l22.518,-0l-0,-74.598c0.593,-26.601 14.549,-42.33 38.897,-42.33c20.191,0.297 30.287,12.465 30.287,37.69l-0,79.238l22.517,-0l0,-80.128Z" style="fill:#9f8c8c;fill-rule:nonzero;"/><path d="M2333.58,1337.11c-9.501,-16.301 -24.05,-23.409 -43.646,-23.409c-33.254,0 -56.069,28.159 -56.069,70.019c0,41.86 23.111,68.832 56.069,68.832c20.784,0 34.739,-7.403 43.646,-22.222l-0,19.255l22.221,-0l-0,-132.619l-22.221,-0l-0,20.144Zm-76.604,46.758c0,-33.101 14.846,-51.804 38.005,-51.804c24.05,-0 38.599,19.89 38.599,51.656c-0,31.766 -14.549,51.657 -38.599,51.657c-24.347,-0 -38.005,-20.188 -38.005,-51.657l0,0.148Z" style="fill:#9f8c8c;fill-rule:nonzero;"/><rect x="2384.92" y="1227.04" width="22.517" height="222.54" style="fill:#9f8c8c;fill-rule:nonzero;"/><path d="M2536.54,1262.62l30.583,-0c25.238,0.591 40.975,12.423 40.975,39.044c0,26.916 -16.924,39.043 -40.975,39.043l-30.583,0l-0,-78.087Zm-22.814,-20.44l-0,207.405l22.814,-0l-0,-89.031l30.583,-0c40.679,-0 63.79,-18.958 63.79,-58.89c-0,-41.71 -24.002,-59.484 -63.79,-59.484l-53.397,-0Z" style="fill:#9f8c8c;fill-rule:nonzero;"/><path d="M2723.5,1317.84c-5.342,-2.962 -13.058,-4.147 -15.729,-4.147c-21.961,0 -36.503,7.701 -45.999,24.002l-0,-20.737l-22.518,-0l0,132.619l22.518,-0l-0,-69.566c0.593,-30.149 13.651,-47.065 39.173,-47.065c6.232,0 9.793,2.078 14.839,5.045l7.716,-20.151Z" style="fill:#9f8c8c;fill-rule:nonzero;"/><path d="M2822.33,1415.77c-10.09,11.88 -22.258,18.414 -39.471,18.414l-2.374,-0c-24.335,-0 -43.922,-22.572 -43.922,-49.895l104.166,0l0,-7.997c-2.967,-38.293 -25.225,-62.597 -60.837,-62.597l-1.187,0c-37.097,0 -65.253,30.841 -65.253,70.298c0,38.905 29.64,68.85 66.736,68.85c23.445,-0.296 44.219,-8.589 56.09,-24.599l-13.948,-12.474Zm-83.392,-50.14c2.967,-13.964 21.367,-32.979 40.063,-32.979c18.4,0 35.019,9.211 38.877,32.979l-78.94,-0Z" style="fill:#9f8c8c;fill-rule:nonzero;"/><path d="M2943.41,1330.88c-13.629,-12.44 -26.686,-17.179 -40.348,-17.179c-29.1,0 -47.466,16.586 -47.466,41.222c0.592,21.969 15.108,31.766 42.417,39.188c17.523,4.453 27.324,7.422 27.324,23.453c-0.595,13.657 -8.316,16.626 -28.215,16.626c-11.285,-0 -22.567,-5.641 -30.269,-16.329l-16.302,13.954c10.97,13.629 29.94,21.034 45.977,21.034c35.031,-0 51.623,-14.809 51.623,-39.441l-0,-0.594c-0,-22.265 -21.925,-32.656 -41.525,-37.703c-15.147,-3.266 -29.699,-8.016 -30.59,-21.078c-0,-13.954 11.286,-21.672 26.135,-21.672c12.177,-0 19.899,5.046 28.499,13.062l12.74,-14.543Z" style="fill:#9f8c8c;fill-rule:nonzero;"/><path d="M3048.77,1330.88c-13.629,-12.44 -26.686,-17.179 -40.348,-17.179c-29.1,0 -47.466,16.586 -47.466,41.222c0.592,21.969 15.108,31.766 42.417,39.188c17.523,4.453 27.324,7.422 27.324,23.453c-0.595,13.657 -8.316,16.626 -28.215,16.626c-11.285,-0 -22.567,-5.641 -30.269,-16.329l-16.302,13.954c10.97,13.629 29.94,21.034 45.977,21.034c35.031,-0 51.623,-14.809 51.623,-39.441l-0,-0.594c-0,-22.265 -21.925,-32.656 -41.525,-37.703c-15.147,-3.266 -29.699,-8.016 -30.59,-21.078c-0,-13.954 11.286,-21.672 26.135,-21.672c12.177,-0 19.899,5.046 28.499,13.062l12.74,-14.543Z" style="fill:#9f8c8c;fill-rule:nonzero;"/><path d="M3215.27,1297.38l29.973,77.16l-59.65,0l29.677,-77.16Zm-0,-58.76l-83.096,210.966l24.335,-0l20.477,-53.716l77.457,0l20.18,53.716l24.336,-0l-83.689,-210.966Z" style="fill:#9f8c8c;fill-rule:nonzero;"/><path d="M3393.91,1330.88c-13.629,-12.44 -26.687,-17.179 -40.348,-17.179c-29.1,0 -47.466,16.586 -47.466,41.222c0.592,21.969 15.107,31.766 42.417,39.188c17.522,4.453 27.323,7.422 27.323,23.453c-0.594,13.657 -8.316,16.626 -28.214,16.626c-11.286,-0 -22.568,-5.641 -30.27,-16.329l-16.302,13.954c10.97,13.629 29.94,21.034 45.978,21.034c35.03,-0 51.622,-14.809 51.622,-39.441l0,-0.594c0,-22.265 -21.925,-32.656 -41.524,-37.703c-15.147,-3.266 -29.7,-8.016 -30.59,-21.078c-0,-13.954 11.285,-21.672 26.135,-21.672c12.176,-0 19.898,5.046 28.498,13.062l12.741,-14.543Z" style="fill:#9f8c8c;fill-rule:nonzero;"/><path d="M3499.26,1330.88c-13.629,-12.44 -26.687,-17.179 -40.348,-17.179c-29.1,0 -47.466,16.586 -47.466,41.222c0.592,21.969 15.107,31.766 42.417,39.188c17.522,4.453 27.323,7.422 27.323,23.453c-0.594,13.657 -8.316,16.626 -28.214,16.626c-11.286,-0 -22.568,-5.641 -30.27,-16.329l-16.301,13.954c10.969,13.629 29.939,21.034 45.977,21.034c35.03,-0 51.622,-14.809 51.622,-39.441l0,-0.594c0,-22.265 -21.925,-32.656 -41.524,-37.703c-15.147,-3.266 -29.699,-8.016 -30.59,-21.078c-0,-13.954 11.285,-21.672 26.135,-21.672c12.176,-0 19.898,5.046 28.499,13.062l12.74,-14.543Z" style="fill:#9f8c8c;fill-rule:nonzero;"/><path d="M3583.85,1313.7c-37.112,0 -67.348,30.832 -67.348,70.316c-0,38.891 30.236,68.832 67.348,68.832c36.815,-0 66.458,-30.238 66.458,-69.129c-0,-39.484 -29.643,-70.019 -66.458,-70.019Zm0.297,18.956c24.049,0 43.643,23.751 43.643,51.36c0,27.61 -19.594,50.173 -43.643,50.173c-24.346,-0 -43.941,-22.563 -43.941,-50.173c0,-27.609 19.595,-51.36 43.941,-51.36Z" style="fill:#9f8c8c;fill-rule:nonzero;"/><path d="M3731.62,1313.7c-37.096,0 -67.329,30.832 -67.329,70.316c-0,38.891 30.233,68.833 67.329,68.833c1.484,-0 2.671,0.296 4.155,0.296c13.948,-0 26.413,-5.628 40.064,-14.514l-14.838,-17.505c-7.716,8.313 -17.807,13.063 -29.084,13.063c-24.335,-0 -43.922,-22.563 -43.922,-50.173c0,-27.609 19.587,-51.36 43.922,-51.36c10.981,0 21.368,5.344 29.084,13.657l14.838,-16.618c-12.464,-11.256 -28.193,-15.995 -41.844,-15.995l-2.375,0Z" style="fill:#9f8c8c;fill-rule:nonzero;"/><path d="M3791.91,1316.96l-0,132.619l22.517,-0l0,-132.619l-22.517,-0Zm11.258,-67.664c-8.299,0 -14.82,6.818 -14.82,15.117c0,8.299 6.521,14.82 14.821,14.82c8.299,0 15.116,-6.521 15.116,-14.82c0,-8.299 -6.817,-15.117 -15.116,-15.117l-0.001,0Z" style="fill:#9f8c8c;fill-rule:nonzero;"/><path d="M3936.43,1337.11c-9.501,-16.301 -24.049,-23.409 -43.646,-23.409c-33.254,0 -56.068,28.159 -56.068,70.019c-0,41.86 23.111,68.832 56.068,68.832c20.784,0 34.739,-7.403 43.646,-22.222l0,19.255l22.221,-0l-0,-132.619l-22.221,-0l0,20.144Zm-76.603,46.758c-0,-33.101 14.845,-51.804 38.005,-51.804c24.05,-0 38.598,19.89 38.598,51.656c0,31.766 -14.548,51.657 -38.598,51.657c-24.347,-0 -38.005,-20.188 -38.005,-51.657l-0,0.148Z" style="fill:#9f8c8c;fill-rule:nonzero;"/><path d="M4017.12,1264.43l-22.22,-0l-0,52.528l-18.4,-0l0,16.879l18.4,-0l-0,115.74l22.22,-0l0,-115.74l18.4,-0l0,-16.879l-18.4,-0l0,-52.528Z" style="fill:#9f8c8c;fill-rule:nonzero;"/><path d="M4053.36,1316.96l0,132.619l22.518,-0l-0,-132.619l-22.518,-0Zm11.259,-67.664c-8.299,0 -14.82,6.818 -14.82,15.117c0,8.299 6.521,14.82 14.82,14.82c8.299,0 15.117,-6.521 15.117,-14.82c-0,-8.299 -6.818,-15.117 -15.117,-15.117l-0,0Z" style="fill:#9f8c8c;fill-rule:nonzero;"/><path d="M4164.33,1313.7c-37.112,0 -67.349,30.832 -67.349,70.316c0,38.891 30.237,68.832 67.349,68.832c36.815,-0 66.457,-30.238 66.457,-69.129c0,-39.484 -29.642,-70.019 -66.457,-70.019Zm0.296,18.956c24.049,0 43.644,23.751 43.644,51.36c-0,27.61 -19.595,50.173 -43.644,50.173c-24.345,-0 -43.94,-22.563 -43.94,-50.173c-0,-27.609 19.595,-51.36 43.94,-51.36Z" style="fill:#9f8c8c;fill-rule:nonzero;"/><path d="M4367.01,1369.45c0,-36.8 -16.888,-55.756 -47.756,-55.756c-19.3,0 -33.256,7.997 -43.945,24.002l-0,-20.737l-22.518,-0l0,132.619l22.518,-0l-0,-74.598c0.593,-26.601 14.549,-42.33 38.897,-42.33c20.191,0.297 30.287,12.465 30.287,37.69l-0,79.238l22.517,-0l0,-80.128Z" style="fill:#9f8c8c;fill-rule:nonzero;"/></g><g><path d="M860.509,121.567l-0,629.226l-524.355,-629.226l-228.874,-0l0,979.268l226.04,-0l-0,-629.935l524.354,629.935l228.874,-0l0,-979.268l-226.039,-0Z" style="fill:#edd7a7;fill-rule:nonzero;"/><path d="M1185.75,121.567l0,979.268l226.04,-0l-0,-376.969l753.228,0l0,-602.299l-979.268,-0Zm226.04,226.039l527.189,0l-0,150.221l-527.189,-0l-0,-150.221Z" style="fill:#edd7a7;fill-rule:nonzero;"/><path d="M2264.22,121.567l-0,979.268l226.039,-0l0,-376.969l753.229,0l-0,-602.299l-979.268,-0Zm226.039,226.039l527.189,0l0,150.221l-527.189,-0l0,-150.221Z" style="fill:#edd7a7;fill-rule:nonzero;"/><path d="M3342.69,121.567l-0,979.268l226.039,-0l0,-376.969l527.19,0l-0,376.969l226.039,-0l-0,-979.268l-979.268,-0Zm226.039,226.039l527.19,0l-0,150.221l-527.19,-0l0,-150.221Z" style="fill:#edd7a7;fill-rule:nonzero;"/></g><g><path d="M4553.43,764.484l0,51.914l98.75,0l0,278.295l54.749,-0l0,-278.295l98.278,0l-0,-51.914l-251.777,-0Z" style="fill:#f6edd2;fill-rule:nonzero;"/><path d="M5011.69,971.374c0,-64.704 -29.736,-93.021 -84.534,-93.021c-25.532,-0 -43.972,7.079 -58.629,31.62l-0,-169.586l-52.86,-0l0,354.306l52.86,-0l-0,-115.76c0.945,-30.711 18.913,-48.666 51.064,-48.666c23.168,0.473 34.042,13.23 34.042,42.524l0,121.902l58.057,-0l0,-123.319Z" style="fill:#f6edd2;fill-rule:nonzero;"/><path d="M5148.23,878.353c-62.834,-0 -110.503,49.081 -110.503,111.459c-0,61.942 50.029,110.078 112.865,110.078c40.161,-0.472 76.543,-16.988 96.86,-46.717l-33.547,-27.907c-15.592,17.501 -35.436,27.907 -60.95,27.907l-1.89,-0c-32.602,-0 -59.061,-26.015 -59.061,-55.34l160.173,-0l-0,-19.344c-0,-61.912 -41.579,-100.136 -101.585,-100.136l-2.362,-0Zm50.556,78.905l-102.057,0c3.78,-12.782 27.876,-30.771 51.973,-30.771c24.097,0 45.359,8.048 50.084,30.771Z" style="fill:#f6edd2;fill-rule:nonzero;"/><path d="M5529.56,1099.42l139.383,-334.933l-56.226,-0l-84.102,210.395l-86.465,-210.395l-56.699,-0l139.384,334.933l4.725,0Z" style="fill:#f6edd2;fill-rule:nonzero;"/><path d="M5736.04,878.353c-62.862,-0 -113.839,49.08 -113.839,111.477c-0,61.925 50.977,110.06 113.839,110.06c62.391,-0 112.422,-48.135 112.422,-110.532c0,-62.398 -50.031,-111.005 -112.422,-111.005Zm0.473,48.134c30.255,0 54.838,29.781 54.838,63.343c-0,34.035 -24.583,61.925 -54.838,61.925c-30.728,0 -55.311,-27.89 -55.311,-61.925c0,-33.562 24.583,-63.343 55.311,-63.343Z" style="fill:#f6edd2;fill-rule:nonzero;"/><path d="M5878.28,883.55l0,211.143l52.387,-0l0,-211.143l-52.387,0Zm26.429,-112.452c-18.882,0 -33.516,14.162 -33.516,32.572c-0,18.411 14.634,32.572 33.517,32.572c18.882,0 33.517,-14.161 33.517,-32.572c-0,-18.41 -14.635,-32.572 -33.517,-32.572l-0.001,0Z" style="fill:#f6edd2;fill-rule:nonzero;"/><path d="M6071,878.353c-60.943,-0 -111.447,49.08 -111.447,111.477c-0,61.925 50.504,110.06 111.447,110.06c29.295,-0 51.974,-8.966 77.961,-29.259l-33.547,-37.784c-11.812,11.818 -26.459,18.908 -43.469,18.908c-30.239,0 -54.808,-27.89 -54.808,-61.925c0,-33.562 24.569,-63.343 54.808,-63.343c16.537,0 31.657,8.509 43.469,20.327l33.547,-34.956c-23.152,-24.539 -53.391,-32.09 -77.961,-33.505Z" style="fill:#f6edd2;fill-rule:nonzero;"/><path d="M6269.44,878.353c-62.834,-0 -110.503,49.081 -110.503,111.459c-0,61.942 50.029,110.078 112.865,110.078c40.161,-0.472 76.543,-16.988 96.86,-46.717l-33.547,-27.907c-15.592,17.501 -35.436,27.907 -60.95,27.907l-1.89,-0c-32.602,-0 -59.061,-26.015 -59.061,-55.34l160.173,-0l-0,-19.344c-0,-61.912 -41.579,-100.136 -101.585,-100.136l-2.362,-0Zm50.556,78.905l-102.057,0c3.78,-12.782 27.876,-30.771 51.973,-30.771c24.097,0 45.359,8.048 50.084,30.771Z" style="fill:#f6edd2;fill-rule:nonzero;"/><path d="M6636.12,878.353c-62.862,-0 -113.839,49.08 -113.839,111.477c-0,61.925 50.977,110.06 113.839,110.06c62.391,-0 112.423,-48.135 112.423,-110.532c-0,-62.398 -50.032,-111.005 -112.423,-111.005Zm0.473,48.134c30.255,0 54.838,29.781 54.838,63.343c0,34.035 -24.583,61.925 -54.838,61.925c-30.728,0 -55.31,-27.89 -55.31,-61.925c-0,-33.562 24.582,-63.343 55.31,-63.343Z" style="fill:#f6edd2;fill-rule:nonzero;"/><path d="M6911.08,740.387l-41.579,-0c-52.884,-0 -75.538,32.563 -75.538,84.241l-0,58.922l-31.185,0l0,44.355l31.185,-0l-0,166.788l52.859,-0l-0,-166.788l36.854,-0l-0,-44.355l-36.854,0l-0,-62.249c0.945,-18.532 5.197,-31.362 22.207,-31.362l42.051,-0l0,-49.552Z" style="fill:#f6edd2;fill-rule:nonzero;"/><path d="M7070.84,764.484l-0,219.339c-0,47.641 -9.45,63.207 -35.437,63.207l-18.427,0l0,53.332l22.207,0c61.391,0 86.878,-37.285 86.878,-116.539l0,-219.339l-55.221,-0Z" style="fill:#f6edd2;fill-rule:nonzero;"/><path d="M7266.89,878.353c-62.863,-0 -113.84,49.08 -113.84,111.477c0,61.925 50.977,110.06 113.84,110.06c62.39,-0 112.422,-48.135 112.422,-110.532c0,-62.398 -50.032,-111.005 -112.422,-111.005Zm0.472,48.134c30.256,0 54.838,29.781 54.838,63.343c0,34.035 -24.582,61.925 -54.838,61.925c-30.728,0 -55.31,-27.89 -55.31,-61.925c-0,-33.562 24.582,-63.343 55.31,-63.343Z" style="fill:#f6edd2;fill-rule:nonzero;"/><path d="M7406.31,1007.93c-0,61.282 44.839,91.958 99.193,91.958l2.364,-0c57.178,-0 94.938,-34.923 94.938,-91.958l0,-124.382l-57.584,0l-0,116.844c-0.473,33.922 -11.821,48.999 -39.718,48.999c-24.587,-0 -42.554,-16.019 -42.554,-42.874l0,-122.969l-56.639,0l-0,124.382Z" style="fill:#f6edd2;fill-rule:nonzero;"/><path d="M7771.95,937.827l17.482,-44.844c-12.285,-10.855 -30.239,-14.63 -36.381,-14.63c-28.822,-0 -47.721,10.854 -60.006,34.452l-0,-29.255l-51.442,0l-0,211.143l51.442,-0l-0,-108.87c0.945,-34.766 17.009,-55.556 49.611,-55.556c8.505,0 20.789,3.308 29.294,7.56Z" style="fill:#f6edd2;fill-rule:nonzero;"/><path d="M7996.38,970.901c0,-61.4 -29.736,-92.548 -84.534,-92.548c-25.532,-0 -43.972,11.326 -58.629,34.452l-0,-29.255l-52.86,0l0,211.143l52.86,-0l-0,-116.461c0.945,-29.065 18.913,-47.965 51.064,-47.965c23.168,0.473 34.042,14.647 34.042,41.579l0,122.847l58.057,-0l0,-123.792Z" style="fill:#f6edd2;fill-rule:nonzero;"/><path d="M8182.6,911.389c-12.292,-23.126 -32.149,-33.036 -58.152,-33.036c-59.063,-0 -99.659,44.835 -99.659,111.004c0,66.643 41.068,110.06 99.659,110.06c27.421,0 46.333,-10.382 58.152,-31.619l-0,26.895l51.914,-0l0,-211.143l-51.914,0l-0,27.839Zm-95.029,78.204c0,-38.054 17.493,-59.326 44.442,-59.326c31.676,0 50.587,22.217 50.587,59.09c-0,37.345 -18.911,60.036 -50.587,60.036c-28.367,-0 -44.442,-23.164 -44.442,-60.036l0,0.236Z" style="fill:#f6edd2;fill-rule:nonzero;"/><rect x="8276.15" y="740.387" width="52.859" height="354.306" style="fill:#f6edd2;fill-rule:nonzero;"/><path d="M8370.65,883.55l0,211.143l52.387,-0l0,-211.143l-52.387,0Zm26.43,-112.452c-18.883,0 -33.517,14.162 -33.517,32.572c0,18.411 14.634,32.572 33.517,32.572c18.883,0 33.517,-14.161 33.517,-32.572c0,-18.41 -14.634,-32.572 -33.517,-32.572l-0,0Z" style="fill:#f6edd2;fill-rule:nonzero;"/><path d="M8618.65,923.653c-16.518,-26.427 -42.946,-45.3 -74.627,-45.3l-2.365,-0c-50.56,-0 -80.765,29.254 -80.765,65.153c0,36.871 31.149,54.834 61.374,61.452c21.283,4.727 50.133,13.235 50.133,28.362l0,0.473c0,11.817 -17.026,17.962 -36.418,17.962c-16.08,0 -29.309,-7.563 -42.052,-26.944l-40.124,32.136c24.078,35.393 57.114,43.888 82.176,43.888c43.969,-0 85.972,-24.54 87.387,-67.042c-0.472,-35.926 -25.956,-56.252 -58.063,-64.288c-18.919,-4.254 -52.025,-12.763 -52.498,-26.471c-0,-15.127 10.878,-21.272 28.377,-21.744c17.972,0 34.991,19.38 41.598,28.362l35.867,-25.999Z" style="fill:#f6edd2;fill-rule:nonzero;"/><path d="M8717.87,799.92l-50.97,0l0,83.63l-26.931,0l-0,43.882l26.931,0l0,167.261l50.97,-0l-0,-167.261l26.459,0l-0,-43.882l-26.459,0l-0,-83.63Z" style="fill:#f6edd2;fill-rule:nonzero;"/><path d="M8919.63,923.653c-16.518,-26.427 -42.947,-45.3 -74.628,-45.3l-2.364,-0c-50.56,-0 -80.765,29.254 -80.765,65.153c0,36.871 31.149,54.834 61.374,61.452c21.283,4.727 50.133,13.235 50.133,28.362l-0,0.473c-0,11.817 -17.027,17.962 -36.418,17.962c-16.08,0 -29.31,-7.563 -42.052,-26.944l-40.124,32.136c24.077,35.393 57.114,43.888 82.176,43.888c43.969,-0 85.971,-24.54 87.387,-67.042c-0.472,-35.926 -25.956,-56.252 -58.064,-64.288c-18.918,-4.254 -52.025,-12.763 -52.498,-26.471c0,-15.127 10.878,-21.272 28.378,-21.744c17.972,0 34.99,19.38 41.597,28.362l35.868,-25.999Z" style="fill:#f6edd2;fill-rule:nonzero;"/></g><rect x="4397.2" y="121.567" width="36.086" height="1393.87" style="fill:#f6e5bf;"/><rect x="4433.28" y="1198.02" width="4491.06" height="29.024" style="fill:#f6e5bf;"/></svg>